<svg width="300" height="100" viewBox="0 0 300 100" fill="none" xmlns="http://www.w3.org/2000/svg">
  <path d="M50 82L63 58V82H80V20H55V44L83 20H109L74 48L110 82H85L61 58H50V82Z" fill="#FFB3C7"/>
  <path d="M127 20V82H144V20H127Z" fill="#FFB3C7"/>
  <path d="M165 42C151 42 144 51 144 63C144 76 153 84 167 84C181 84 186 76 186 70H171C170 73 168 74 165 74C161 74 159 71 158 66H188C189 63 189 59 188 56C186 46 179 42 165 42ZM158 56C158 52 161 51 165 51C169 51 172 52 173 56H158Z" fill="#FFB3C7"/>
  <path d="M205 44H190V82H206V58C206 52 210 52 213 52V42C208 42 205 45 205 48V44Z" fill="#FFB3C7"/>
  <path d="M225 44H240V51C244 45 249 42 255 42C267 42 271 49 271 60V82H255V63C255 57 253 54 248 54C243 54 240 57 240 63V82H225V44Z" fill="#FFB3C7"/>
  <path d="M300 63C300 76 292 84 278 84C264 84 256 76 256 63C256 50 264 42 278 42C292 42 300 50 300 63ZM271 63C271 70 274 73 278 73C282 73 285 70 285 63C285 56 282 53 278 53C274 53 271 56 271 63Z" fill="#FFB3C7"/>
  <circle cx="288" cy="74" r="5" fill="#FFB3C7"/>
</svg>