<svg width="296" height="53" viewBox="0 0 296 53" fill="none" xmlns="http://www.w3.org/2000/svg">
<path d="M35.28 37.73L41.72 3.01H59.92C60.2933 5.01667 60.48 6.44 60.48 7.28C58.24 8.07333 56.3033 8.68 54.67 9.1L59.64 45.29L64.47 45.92C64.47 47.8333 63.9333 49.8633 62.86 52.01H45.85L45.22 48.16C47.8333 47.0867 49.7933 46.41 51.1 46.13L45.71 17.57L38.57 48.58H31.43L20.37 14.35L14.42 45.29L19.25 45.92C19.25 47.8333 18.7133 49.8633 17.64 52.01H0.629997L-3.01003e-06 48.16C2.61333 47.0867 4.57333 46.41 5.88 46.13L10.85 9.1L5.04 7.28L5.6 3.01H25.2L34.58 37.73H35.28ZM82.2976 52.85C78.3309 52.85 75.2509 52.0333 73.0576 50.4C70.9109 48.7667 69.8376 46.0133 69.8376 42.14C69.8376 38.4533 71.1209 35.4433 73.6876 33.11C75.1809 31.7567 77.2576 30.9633 79.9176 30.73C82.5776 30.4967 86.2409 30.38 90.9076 30.38V29.26C90.9076 26.4133 90.4409 24.3367 89.5076 23.03C88.6209 21.6767 87.0342 21 84.7476 21C83.5809 21 82.5309 21.2333 81.5976 21.7L79.9176 27.79L74.7376 27.65C73.5709 25.8767 72.9409 23.0533 72.8476 19.18C73.7809 18.7133 75.9742 18.0133 79.4276 17.08C82.8809 16.1 85.0976 15.61 86.0776 15.61C91.1176 15.61 94.7809 16.66 97.0676 18.76C99.3542 20.8133 100.498 24.1033 100.498 28.63C100.498 33.11 100.288 39.0367 99.8676 46.41C102.528 46.6433 104.581 47.04 106.028 47.6C106.074 48.16 106.098 48.8367 106.098 49.63L106.028 51.17C102.668 52.29 99.2842 52.85 95.8776 52.85C94.9909 52.85 94.3376 52.8267 93.9176 52.78C93.2176 51.38 92.7976 49.7 92.6576 47.74H92.3076C91.4209 48.58 89.8576 49.6533 87.6176 50.96C85.4242 52.22 83.6509 52.85 82.2976 52.85ZM78.7976 42.56C78.7976 44.1 79.2642 45.2433 80.1976 45.99C81.1776 46.69 82.2742 47.04 83.4876 47.04C84.7009 47.04 86.1476 46.5033 87.8276 45.43C89.5076 44.31 90.8609 43.3067 91.8876 42.42L91.5376 35.98C87.8509 36.1667 85.0742 36.5167 83.2076 37.03C80.2676 37.6367 78.7976 39.48 78.7976 42.56ZM127.522 23.17C127.429 22.9367 126.962 22.82 126.122 22.82C125.282 22.82 123.835 23.45 121.782 24.71C121.595 33.8567 121.479 40.7167 121.432 45.29L126.892 45.99C126.892 47.9967 126.355 50.0033 125.282 52.01H107.852L107.222 48.16C110.115 47.0867 112.215 46.3867 113.522 46.06L112.752 23.38C110.325 23.1933 108.295 22.8433 106.662 22.33L107.152 17.29C108.412 16.73 112.962 16.3567 120.802 16.17C121.222 16.59 121.432 17.4067 121.432 18.62C125.539 16.6133 128.129 15.61 129.202 15.61C130.322 15.61 131.675 15.89 133.262 16.45C134.895 16.9633 136.132 17.5233 136.972 18.13V19.32C136.972 23.1467 136.505 26.6933 135.572 29.96C134.779 30.2867 133.729 30.45 132.422 30.45C131.115 30.45 129.902 30.38 128.782 30.24C128.642 29.6333 128.222 27.2767 127.522 23.17ZM152.317 39.9L152.247 45.29L157.707 45.92C157.707 47.8333 157.171 49.8633 156.097 52.01H138.667L138.037 48.16C140.931 47.0867 143.031 46.3867 144.337 46.06L143.007 7.21C140.814 6.97667 138.971 6.62667 137.477 6.16C137.477 4.43333 137.641 2.75333 137.967 1.12C140.721 0.373333 145.434 0 152.107 0C152.994 0 153.554 0.023333 153.787 0.0699991C153.787 2.49667 153.484 4.62 152.877 6.44C152.597 17.64 152.457 25.9467 152.457 31.36L160.787 23.1L156.447 22.54C156.447 20.6267 156.984 18.5967 158.057 16.45H175.487L176.117 20.3C173.224 21.3733 171.124 22.0733 169.817 22.4L162.117 30.1L171.917 45.29L177.377 45.92C177.377 47.8333 176.841 49.8633 175.767 52.01H166.807L156.447 35.77L152.317 39.9ZM198.295 45.99C199.881 45.99 203.101 44.8933 207.955 42.7C208.981 44.1933 209.751 45.92 210.265 47.88C207.698 49.4667 205.178 50.7033 202.705 51.59C200.278 52.43 198.551 52.85 197.525 52.85C191.878 52.85 187.585 51.2867 184.645 48.16C181.751 45.0333 180.305 40.6 180.305 34.86C180.305 29.0733 181.751 24.43 184.645 20.93C187.538 17.3833 191.831 15.61 197.525 15.61C202.051 15.61 205.505 17.08 207.885 20.02C210.265 22.96 211.455 26.7867 211.455 31.5C211.455 32.48 210.895 33.6 209.775 34.86L189.615 34.51C189.708 38.2433 190.408 41.09 191.715 43.05C193.021 45.01 195.215 45.99 198.295 45.99ZM196.895 21.42C195.121 21.42 193.465 21.77 191.925 22.47C190.851 24.71 190.175 26.7867 189.895 28.7C193.535 28.56 197.665 28.4667 202.285 28.42C202.051 23.7533 200.255 21.42 196.895 21.42ZM223.965 52.85L222.425 52.78C222.145 52.2667 221.772 51.31 221.305 49.91C220.838 48.51 220.582 47.46 220.535 46.76C220.302 42.14 220.045 34.1367 219.765 22.75H214.865L215.075 18.76C216.148 18.0133 217.432 17.3367 218.925 16.73L224.595 7.77C226.415 7.95667 227.838 8.44667 228.865 9.24L228.795 15.89C231.735 15.9833 234.465 16.2633 236.985 16.73C236.985 18.5967 236.402 20.6033 235.235 22.75H228.725C228.538 32.55 228.422 39.9 228.375 44.8C230.242 44.9867 232.785 45.5233 236.005 46.41L235.935 50.05C235.142 50.5633 233.368 51.17 230.615 51.87C227.908 52.5233 225.692 52.85 223.965 52.85ZM258.451 45.99C260.038 45.99 263.258 44.8933 268.111 42.7C269.138 44.1933 269.908 45.92 270.421 47.88C267.854 49.4667 265.334 50.7033 262.861 51.59C260.434 52.43 258.708 52.85 257.681 52.85C252.034 52.85 247.741 51.2867 244.801 48.16C241.908 45.0333 240.461 40.6 240.461 34.86C240.461 29.0733 241.908 24.43 244.801 20.93C247.694 17.3833 251.988 15.61 257.681 15.61C262.208 15.61 265.661 17.08 268.041 20.02C270.421 22.96 271.611 26.7867 271.611 31.5C271.611 32.48 271.051 33.6 269.931 34.86L249.771 34.51C249.864 38.2433 250.564 41.09 251.871 43.05C253.178 45.01 255.371 45.99 258.451 45.99ZM257.051 21.42C255.278 21.42 253.621 21.77 252.081 22.47C251.008 24.71 250.331 26.7867 250.051 28.7C253.691 28.56 257.821 28.4667 262.441 28.42C262.208 23.7533 260.411 21.42 257.051 21.42ZM289.441 0C290.328 0 290.888 0.023333 291.121 0.0699991C291.121 2.49667 290.818 4.62 290.211 6.44C290.165 9.33333 290.095 13.4167 290.001 18.69C289.815 30.2633 289.675 39.13 289.581 45.29L295.041 45.92C295.041 47.8333 294.505 49.8633 293.431 52.01H276.001L275.371 48.16C278.265 47.0867 280.365 46.3867 281.671 46.06L280.341 7.21C278.148 6.97667 276.305 6.62667 274.811 6.16C274.811 4.43333 274.975 2.75333 275.301 1.12C278.055 0.373333 282.768 0 289.441 0Z" fill="black"/>
</svg>
